<svg width="20" height="20" viewBox="0 0 20 20" fill="none" xmlns="http://www.w3.org/2000/svg">
  <path fill-rule="evenodd" clip-rule="evenodd"
    d="M8.16923 12.7104C8.68962 13.0632 9.32385 13.2765 9.99874 13.2765C11.7876 13.2765 13.2431 11.808 13.2431 10.003C13.2431 9.32208 13.0317 8.68215 12.682 8.15708L11.7957 9.05134C11.9421 9.33029 12.0234 9.65846 12.0234 10.003C12.0234 11.127 11.1127 12.0459 9.99874 12.0459C9.65723 12.0459 9.33198 11.9638 9.05553 11.8162L8.16923 12.7104ZM15.3572 5.45789C16.5362 6.54085 17.5363 8.0012 18.2844 9.75691C18.3494 9.91279 18.3494 10.0933 18.2844 10.241C16.5443 14.3267 13.4463 16.7715 9.99874 16.7715H9.99061C8.4213 16.7715 6.91703 16.2547 5.59166 15.3112L4.01421 16.9028C3.89224 17.0259 3.73775 17.0833 3.58326 17.0833C3.42877 17.0833 3.26615 17.0259 3.15231 16.9028C2.94903 16.6977 2.91651 16.3695 3.07913 16.1316L3.10352 16.0988L15.1295 3.96472C15.1458 3.94831 15.162 3.9319 15.1702 3.91549L15.1702 3.91549C15.1864 3.89908 15.2027 3.88267 15.2108 3.86627L15.9751 3.09507C16.2191 2.85715 16.6012 2.85715 16.837 3.09507C17.081 3.33299 17.081 3.72679 16.837 3.96472L15.3572 5.45789ZM6.74847 10.0062C6.74847 10.2195 6.77287 10.4329 6.80539 10.6298L3.79687 13.6653C2.98375 12.7136 2.27634 11.565 1.71529 10.2442C1.65024 10.0965 1.65024 9.91599 1.71529 9.76011C3.45536 5.6744 6.55333 3.23774 9.9928 3.23774H10.0009C11.1637 3.23774 12.2939 3.51668 13.3347 4.04176L10.6189 6.78197C10.4238 6.74915 10.2123 6.72454 10.0009 6.72454C8.20395 6.72454 6.74847 8.1931 6.74847 10.0062Z"
    fill="white" />
</svg>