<svg width="20" height="20" viewBox="0 0 20 20" fill="none" xmlns="http://www.w3.org/2000/svg">
<path fill-rule="evenodd" clip-rule="evenodd" d="M14.6021 6.1633V7.44108C16.0374 7.88909 17.0832 9.18841 17.0832 10.7403V14.8544C17.0832 16.7756 15.4904 18.3333 13.5267 18.3333H6.47384C4.5093 18.3333 2.9165 16.7756 2.9165 14.8544V10.7403C2.9165 9.18841 3.96313 7.88909 5.39758 7.44108V6.1633C5.40604 3.67895 7.46373 1.66663 9.98714 1.66663C12.5444 1.66663 14.6021 3.67895 14.6021 6.1633ZM10.0041 3.11583C11.723 3.11583 13.1202 4.48222 13.1202 6.1633V7.26138H6.87944V6.14673C6.88791 4.47394 8.2851 3.11583 10.0041 3.11583ZM10.7408 13.7124C10.7408 14.1182 10.4105 14.4411 9.9956 14.4411C9.58915 14.4411 9.2589 14.1182 9.2589 13.7124V11.874C9.2589 11.4765 9.58915 11.1535 9.9956 11.1535C10.4105 11.1535 10.7408 11.4765 10.7408 11.874V13.7124Z" fill="white"/>
</svg>
