<svg width="200" height="200" viewBox="0 0 200 200" fill="none" xmlns="http://www.w3.org/2000/svg">
<path d="M150.354 170.112C149.631 170.891 148.795 171.604 147.845 172.234C135.199 180.62 120.481 185.596 105.134 186.513C83.9785 187.776 63.0941 181.239 46.4321 168.138C29.77 155.037 18.4862 136.282 14.7155 115.42C10.9449 94.5582 14.949 73.0375 25.9702 54.9298C36.9915 36.822 54.2654 23.3833 74.5235 17.1564C94.7816 10.9295 116.619 12.3462 135.903 21.1386C155.187 29.931 170.581 45.4891 179.172 64.8693C185.404 78.9279 187.742 94.2904 186.101 109.378C185.065 118.893 175.128 123.951 166.008 121.045C156.891 118.139 152.175 108.278 151.938 98.712C151.77 91.942 150.281 85.2141 147.492 78.9216C142.337 67.2935 133.101 57.9587 121.53 52.6832C109.96 47.4078 96.8574 46.5577 84.7026 50.2939C72.5477 54.0301 62.1834 62.0933 55.5706 72.9579C48.9579 83.8225 46.5554 96.735 48.8178 109.252C51.0802 121.769 57.8505 133.022 67.8477 140.883C77.8449 148.743 90.3756 152.666 103.069 151.908C109.868 151.502 116.461 149.768 122.5 146.863L70.2681 94.6132C83.8018 81.075 105.744 81.075 119.278 94.6132L186.666 162.024C176.848 171.846 162.603 174.542 150.354 170.112Z" fill="url(#paint0_linear_1928_20239)"/>
<defs>
<linearGradient id="paint0_linear_1928_20239" x1="186.666" y1="186.667" x2="-19.5848" y2="126.866" gradientUnits="userSpaceOnUse">
<stop stop-color="#6949FF"/>
<stop offset="1" stop-color="#876DFF"/>
</linearGradient>
</defs>
</svg>
