<svg width="24" height="24" viewBox="0 0 24 24" fill="none" xmlns="http://www.w3.org/2000/svg">
<g id="Iconly/Light-Outline/Setting">
<g id="Setting">
<g id="Group 3">
<mask id="mask0_430_8895" style="mask-type:luminance" maskUnits="userSpaceOnUse" x="2" y="2" width="20" height="21">
<path id="clip-2" fill-rule="evenodd" clip-rule="evenodd" d="M2 2H21.2849V22.721H2V2Z" fill="white"/>
</mask>
<g mask="url(#mask0_430_8895)">
<path id="Fill 1" fill-rule="evenodd" clip-rule="evenodd" d="M7.20232 17.44C7.43132 17.44 7.66032 17.469 7.88432 17.529C8.56032 17.711 9.14732 18.163 9.49532 18.77C9.72132 19.151 9.84632 19.596 9.85032 20.05C9.85032 20.7 10.3723 21.221 11.0143 21.221H12.2673C12.9063 21.221 13.4283 20.703 13.4313 20.064C13.4273 19.358 13.7033 18.687 14.2083 18.182C14.7063 17.684 15.4023 17.385 16.0983 17.405C16.5543 17.416 16.9933 17.539 17.3803 17.759C17.9373 18.078 18.6483 17.888 18.9703 17.338L19.6343 16.231C19.7823 15.976 19.8253 15.656 19.7463 15.361C19.6683 15.066 19.4723 14.81 19.2083 14.659C18.5903 14.303 18.1493 13.729 17.9663 13.041C17.7853 12.366 17.8843 11.629 18.2373 11.022C18.4673 10.622 18.8043 10.285 19.2083 10.053C19.7503 9.736 19.9403 9.027 19.6253 8.475C19.6123 8.453 19.6003 8.43 19.5903 8.406L19.0043 7.39C18.6853 6.835 17.9753 6.644 17.4183 6.961C16.8163 7.317 16.1003 7.419 15.4123 7.238C14.7253 7.06 14.1493 6.625 13.7903 6.011C13.5603 5.627 13.4353 5.18 13.4313 4.725C13.4403 4.383 13.3203 4.076 13.1023 3.851C12.8853 3.627 12.5803 3.5 12.2673 3.5H11.0143C10.7043 3.5 10.4143 3.621 10.1953 3.839C9.97732 4.058 9.85832 4.349 9.86032 4.659C9.83932 6.121 8.64432 7.298 7.19732 7.298C6.73332 7.293 6.28632 7.168 5.89832 6.936C5.35332 6.626 4.64132 6.817 4.32232 7.372L3.64532 8.485C3.33532 9.023 3.52532 9.734 4.07732 10.055C4.89632 10.529 5.40732 11.413 5.40732 12.361C5.40732 13.309 4.89632 14.192 4.07532 14.667C3.52632 14.985 3.33632 15.692 3.65432 16.242L4.28532 17.33C4.44132 17.611 4.69632 17.814 4.99132 17.897C5.28532 17.979 5.60932 17.944 5.87932 17.794C6.27632 17.561 6.73832 17.44 7.20232 17.44ZM12.2673 22.721H11.0143C9.54532 22.721 8.35032 21.527 8.35032 20.058C8.34832 19.877 8.29632 19.689 8.19932 19.526C8.04232 19.252 7.78832 19.056 7.49532 18.978C7.20432 18.9 6.88532 18.943 6.62332 19.095C5.99532 19.445 5.25632 19.53 4.58032 19.34C3.90532 19.149 3.32232 18.685 2.98032 18.07L2.35532 16.993C1.62432 15.725 2.05932 14.1 3.32532 13.368C3.68432 13.161 3.90732 12.775 3.90732 12.361C3.90732 11.947 3.68432 11.56 3.32532 11.353C2.05832 10.617 1.62432 8.988 2.35432 7.72L3.03232 6.607C3.75332 5.353 5.38332 4.911 6.65432 5.641C6.82732 5.744 7.01532 5.796 7.20632 5.798C7.82932 5.798 8.35032 5.284 8.36032 4.652C8.35632 3.955 8.63132 3.286 9.13232 2.781C9.63532 2.277 10.3033 2 11.0143 2H12.2673C12.9833 2 13.6793 2.294 14.1783 2.805C14.6763 3.319 14.9513 4.024 14.9303 4.739C14.9323 4.9 14.9853 5.086 15.0813 5.249C15.2403 5.519 15.4913 5.709 15.7893 5.787C16.0873 5.861 16.3993 5.821 16.6643 5.664C17.9443 4.933 19.5733 5.371 20.3043 6.641L20.9273 7.72C20.9433 7.749 20.9573 7.777 20.9693 7.806C21.6313 9.057 21.1893 10.632 19.9593 11.351C19.7803 11.454 19.6353 11.598 19.5353 11.772C19.3803 12.041 19.3373 12.361 19.4153 12.655C19.4953 12.955 19.6863 13.204 19.9553 13.358C20.5623 13.707 21.0153 14.295 21.1963 14.974C21.3773 15.652 21.2783 16.388 20.9253 16.995L20.2613 18.101C19.5303 19.357 17.9013 19.792 16.6343 19.06C16.4653 18.963 16.2703 18.91 16.0763 18.905H16.0703C15.7813 18.905 15.4843 19.028 15.2683 19.243C15.0493 19.462 14.9293 19.754 14.9313 20.064C14.9243 21.533 13.7293 22.721 12.2673 22.721Z" fill="#212121"/>
</g>
</g>
<path id="Fill 4" fill-rule="evenodd" clip-rule="evenodd" d="M11.645 10.4741C10.605 10.4741 9.75903 11.3211 9.75903 12.3611C9.75903 13.4011 10.605 14.2461 11.645 14.2461C12.685 14.2461 13.531 13.4011 13.531 12.3611C13.531 11.3211 12.685 10.4741 11.645 10.4741ZM11.645 15.7461C9.77803 15.7461 8.25903 14.2281 8.25903 12.3611C8.25903 10.4941 9.77803 8.97412 11.645 8.97412C13.512 8.97412 15.031 10.4941 15.031 12.3611C15.031 14.2281 13.512 15.7461 11.645 15.7461Z" fill="#212121"/>
</g>
</g>
</svg>
