<svg width="25" height="24" viewBox="0 0 25 24" fill="none" xmlns="http://www.w3.org/2000/svg">
<g clip-path="url(#clip0_433_752)">
<path d="M17.2729 0.0120105C17.2219 -0.0449895 15.3844 0.0345106 13.7854 1.77001C12.1864 3.50401 12.4324 5.49301 12.4684 5.54401C12.5044 5.59501 14.7484 5.67451 16.1809 3.65701C17.6134 1.63951 17.3239 0.0705105 17.2729 0.0120105ZM22.2439 17.6115C22.1719 17.4675 18.7564 15.7605 19.0744 12.4785C19.3924 9.19501 21.5869 8.29501 21.6214 8.19751C21.6559 8.10001 20.7259 7.01251 19.7404 6.46201C19.0168 6.07389 18.216 5.85152 17.3959 5.81101C17.2339 5.80651 16.6714 5.66851 15.5149 5.98501C14.7529 6.19351 13.0354 6.86851 12.5629 6.89551C12.0889 6.92251 10.6789 6.11251 9.16239 5.89801C8.19189 5.71051 7.16289 6.09451 6.42639 6.39001C5.69139 6.68401 4.29339 7.52101 3.31539 9.74551C2.33739 11.9685 2.84889 15.4905 3.21489 16.5855C3.58089 17.679 4.15239 19.4715 5.12439 20.7795C5.98839 22.2555 7.13439 23.28 7.61289 23.628C8.09139 23.976 9.44139 24.207 10.3774 23.7285C11.1304 23.2665 12.4894 23.001 13.0264 23.0205C13.5619 23.04 14.6179 23.2515 15.6994 23.829C16.5559 24.1245 17.3659 24.0015 18.1774 23.6715C18.9889 23.34 20.1634 22.083 21.5344 19.5345C22.0549 18.3495 22.2919 17.709 22.2439 17.6115Z" fill="black"/>
<path d="M17.2729 0.0120105C17.2219 -0.0449895 15.3844 0.0345106 13.7854 1.77001C12.1864 3.50401 12.4324 5.49301 12.4684 5.54401C12.5044 5.59501 14.7484 5.67451 16.1809 3.65701C17.6134 1.63951 17.3239 0.0705105 17.2729 0.0120105ZM22.2439 17.6115C22.1719 17.4675 18.7564 15.7605 19.0744 12.4785C19.3924 9.19501 21.5869 8.29501 21.6214 8.19751C21.6559 8.10001 20.7259 7.01251 19.7404 6.46201C19.0168 6.07389 18.216 5.85152 17.3959 5.81101C17.2339 5.80651 16.6714 5.66851 15.5149 5.98501C14.7529 6.19351 13.0354 6.86851 12.5629 6.89551C12.0889 6.92251 10.6789 6.11251 9.16239 5.89801C8.19189 5.71051 7.16289 6.09451 6.42639 6.39001C5.69139 6.68401 4.29339 7.52101 3.31539 9.74551C2.33739 11.9685 2.84889 15.4905 3.21489 16.5855C3.58089 17.679 4.15239 19.4715 5.12439 20.7795C5.98839 22.2555 7.13439 23.28 7.61289 23.628C8.09139 23.976 9.44139 24.207 10.3774 23.7285C11.1304 23.2665 12.4894 23.001 13.0264 23.0205C13.5619 23.04 14.6179 23.2515 15.6994 23.829C16.5559 24.1245 17.3659 24.0015 18.1774 23.6715C18.9889 23.34 20.1634 22.083 21.5344 19.5345C22.0549 18.3495 22.2919 17.709 22.2439 17.6115Z" fill="black"/>
</g>
<defs>
<clipPath id="clip0_433_752">
<rect width="24" height="24" fill="white" transform="translate(0.5)"/>
</clipPath>
</defs>
</svg>
