<svg width="25" height="24" viewBox="0 0 25 24" fill="none" xmlns="http://www.w3.org/2000/svg">
<g clip-path="url(#clip0_442_1649)">
<path d="M24.0078 12.2244C24.0078 11.2412 23.9295 10.5236 23.7598 9.77954H12.7295V14.2175H19.2041C19.0736 15.3204 18.3687 16.9814 16.8022 18.0975L16.7802 18.246L20.2678 20.9962L20.5095 21.0208C22.7285 18.9346 24.0078 15.8652 24.0078 12.2244Z" fill="#4285F4"/>
<path d="M12.7296 23.9176C15.9016 23.9176 18.5645 22.8545 20.5095 21.0209L16.8023 18.0976C15.8102 18.8018 14.4787 19.2934 12.7296 19.2934C9.6228 19.2934 6.98598 17.2074 6.04603 14.324L5.90825 14.3359L2.2818 17.1927L2.23438 17.3269C4.1663 21.2334 8.13462 23.9176 12.7296 23.9176Z" fill="#34A853"/>
<path d="M6.04621 14.324C5.7982 13.58 5.65466 12.7826 5.65466 11.9589C5.65466 11.135 5.7982 10.3378 6.03316 9.59366L6.02659 9.43519L2.3547 6.53247L2.23457 6.59064C1.43833 8.21174 0.981445 10.0322 0.981445 11.9589C0.981445 13.8855 1.43833 15.7059 2.23457 17.327L6.04621 14.324Z" fill="#FBBC05"/>
<path d="M12.7295 4.62403C14.9356 4.62403 16.4237 5.59401 17.2722 6.40461L20.5878 3.10928C18.5515 1.1826 15.9015 0 12.7295 0C8.13462 0 4.1663 2.68406 2.23438 6.59056L6.03297 9.59359C6.98597 6.7102 9.62279 4.62403 12.7295 4.62403Z" fill="#EB4335"/>
</g>
<defs>
<clipPath id="clip0_442_1649">
<rect width="23.04" height="24" fill="white" transform="translate(0.97998)"/>
</clipPath>
</defs>
</svg>
